<mxfile host="app.diagrams.net" modified="2024-06-11T00:43:39.040Z" agent="Mozilla/5.0 (X11; Linux x86_64) AppleWebKit/537.36 (KHTML, like Gecko) Chrome/118.0.0.0 Safari/537.36" etag="s5XStayiz-t5fLp_PNgQ" version="24.5.2" type="github">
  <diagram name="Page-1" id="ad52d381-51e7-2e0d-a935-2d0ddd2fd229">
    <mxGraphModel dx="1362" dy="771" grid="1" gridSize="10" guides="1" tooltips="1" connect="1" arrows="1" fold="1" page="1" pageScale="1" pageWidth="1100" pageHeight="850" background="none" math="0" shadow="0">
      <root>
        <mxCell id="0" />
        <mxCell id="1" parent="0" />
        <mxCell id="V5OFqShGKvGqf3K6uyeU-1" value="&lt;pre style=&quot;border: 0px; margin-top: 0px; margin-bottom: 0px; text-align: start;&quot;&gt;&lt;span style=&quot;background-color: rgb(255, 255, 255);&quot;&gt;wiphy&lt;/span&gt;&lt;/pre&gt;" style="whiteSpace=wrap;html=1;rounded=1;shadow=1;comic=0;labelBackgroundColor=none;strokeWidth=2;fontFamily=Verdana;fontSize=12;align=center;arcSize=50;verticalAlign=middle;" vertex="1" parent="1">
          <mxGeometry x="562.5" y="352.5" width="90" height="30" as="geometry" />
        </mxCell>
        <mxCell id="V5OFqShGKvGqf3K6uyeU-2" value="&lt;pre style=&quot;border: 0px; margin-top: 0px; margin-bottom: 0px; text-align: start;&quot;&gt;&lt;span style=&quot;background-color: rgb(255, 255, 255);&quot;&gt;wireless_dev&lt;/span&gt;&lt;/pre&gt;" style="whiteSpace=wrap;html=1;rounded=1;shadow=1;comic=0;labelBackgroundColor=none;strokeWidth=2;fontFamily=Verdana;fontSize=12;align=center;arcSize=50;verticalAlign=middle;" vertex="1" parent="1">
          <mxGeometry x="672.5" y="212.5" width="110" height="30" as="geometry" />
        </mxCell>
        <mxCell id="V5OFqShGKvGqf3K6uyeU-6" value="" style="endArrow=classic;html=1;rounded=0;entryX=0.844;entryY=0.033;entryDx=0;entryDy=0;entryPerimeter=0;exitX=0.25;exitY=1;exitDx=0;exitDy=0;" edge="1" parent="1" source="V5OFqShGKvGqf3K6uyeU-2" target="V5OFqShGKvGqf3K6uyeU-1">
          <mxGeometry width="50" height="50" relative="1" as="geometry">
            <mxPoint x="692.5" y="402.5" as="sourcePoint" />
            <mxPoint x="742.5" y="352.5" as="targetPoint" />
          </mxGeometry>
        </mxCell>
        <mxCell id="V5OFqShGKvGqf3K6uyeU-7" value="&lt;pre style=&quot;border: 0px; margin-top: 0px; margin-bottom: 0px; text-align: start;&quot;&gt;&lt;span style=&quot;background-color: rgb(255, 255, 255);&quot;&gt;net_devivce&lt;/span&gt;&lt;/pre&gt;" style="whiteSpace=wrap;html=1;rounded=1;shadow=1;comic=0;labelBackgroundColor=none;strokeWidth=2;fontFamily=Verdana;fontSize=12;align=center;arcSize=50;verticalAlign=middle;" vertex="1" parent="1">
          <mxGeometry x="712.5" y="352.5" width="100" height="30" as="geometry" />
        </mxCell>
        <mxCell id="V5OFqShGKvGqf3K6uyeU-9" value="" style="endArrow=classic;html=1;rounded=0;exitX=0.373;exitY=1;exitDx=0;exitDy=0;exitPerimeter=0;" edge="1" parent="1" source="V5OFqShGKvGqf3K6uyeU-2">
          <mxGeometry width="50" height="50" relative="1" as="geometry">
            <mxPoint x="702.5" y="402.5" as="sourcePoint" />
            <mxPoint x="752.5" y="352.5" as="targetPoint" />
          </mxGeometry>
        </mxCell>
        <mxCell id="V5OFqShGKvGqf3K6uyeU-11" value="&lt;pre style=&quot;border: 0px; margin-top: 0px; margin-bottom: 0px; text-align: start;&quot;&gt;&lt;span style=&quot;background-color: rgb(255, 255, 255);&quot;&gt;nl80211_iftype&lt;/span&gt;&lt;/pre&gt;" style="whiteSpace=wrap;html=1;rounded=1;shadow=1;comic=0;labelBackgroundColor=none;strokeWidth=2;fontFamily=Verdana;fontSize=12;align=center;arcSize=50;verticalAlign=middle;" vertex="1" parent="1">
          <mxGeometry x="547.5" y="102.5" width="125" height="30" as="geometry" />
        </mxCell>
        <mxCell id="V5OFqShGKvGqf3K6uyeU-12" value="" style="endArrow=classic;html=1;rounded=0;entryX=0.5;entryY=1;entryDx=0;entryDy=0;exitX=0.064;exitY=0.167;exitDx=0;exitDy=0;exitPerimeter=0;" edge="1" parent="1" source="V5OFqShGKvGqf3K6uyeU-2" target="V5OFqShGKvGqf3K6uyeU-11">
          <mxGeometry width="50" height="50" relative="1" as="geometry">
            <mxPoint x="672.5" y="212.5" as="sourcePoint" />
            <mxPoint x="722.5" y="162.5" as="targetPoint" />
          </mxGeometry>
        </mxCell>
        <mxCell id="V5OFqShGKvGqf3K6uyeU-14" value="" style="shape=curlyBracket;whiteSpace=wrap;html=1;rounded=1;flipH=1;labelPosition=right;verticalLabelPosition=middle;align=left;verticalAlign=middle;" vertex="1" parent="1">
          <mxGeometry x="527.5" y="70" width="20" height="95" as="geometry" />
        </mxCell>
        <mxCell id="V5OFqShGKvGqf3K6uyeU-15" value="STA" style="text;html=1;align=center;verticalAlign=middle;whiteSpace=wrap;rounded=0;" vertex="1" parent="1">
          <mxGeometry x="482.5" y="72.5" width="60" height="30" as="geometry" />
        </mxCell>
        <mxCell id="V5OFqShGKvGqf3K6uyeU-17" value="AP" style="text;html=1;align=center;verticalAlign=middle;whiteSpace=wrap;rounded=0;" vertex="1" parent="1">
          <mxGeometry x="482.5" y="92.5" width="60" height="30" as="geometry" />
        </mxCell>
        <mxCell id="V5OFqShGKvGqf3K6uyeU-18" value="P2P" style="text;html=1;align=center;verticalAlign=middle;whiteSpace=wrap;rounded=0;" vertex="1" parent="1">
          <mxGeometry x="482.5" y="112.5" width="60" height="30" as="geometry" />
        </mxCell>
        <mxCell id="V5OFqShGKvGqf3K6uyeU-19" value="..." style="text;html=1;align=center;verticalAlign=middle;whiteSpace=wrap;rounded=0;" vertex="1" parent="1">
          <mxGeometry x="482.5" y="132.5" width="60" height="30" as="geometry" />
        </mxCell>
        <mxCell id="V5OFqShGKvGqf3K6uyeU-30" value="hw relate" style="text;html=1;align=center;verticalAlign=middle;whiteSpace=wrap;rounded=0;" vertex="1" parent="1">
          <mxGeometry x="577.5" y="322.5" width="60" height="30" as="geometry" />
        </mxCell>
        <mxCell id="V5OFqShGKvGqf3K6uyeU-32" value="" style="shape=curlyBracket;whiteSpace=wrap;html=1;rounded=1;flipH=1;labelPosition=right;verticalLabelPosition=middle;align=left;verticalAlign=middle;" vertex="1" parent="1">
          <mxGeometry x="390" y="142.5" width="20" height="107.5" as="geometry" />
        </mxCell>
        <mxCell id="V5OFqShGKvGqf3K6uyeU-34" value="" style="endArrow=none;html=1;rounded=0;exitX=0.1;exitY=0.5;exitDx=0;exitDy=0;exitPerimeter=0;entryX=0.106;entryY=-0.017;entryDx=0;entryDy=0;entryPerimeter=0;" edge="1" parent="1" source="V5OFqShGKvGqf3K6uyeU-32" target="V5OFqShGKvGqf3K6uyeU-1">
          <mxGeometry width="50" height="50" relative="1" as="geometry">
            <mxPoint x="520" y="410" as="sourcePoint" />
            <mxPoint x="570" y="360" as="targetPoint" />
          </mxGeometry>
        </mxCell>
        <mxCell id="V5OFqShGKvGqf3K6uyeU-35" value="&lt;pre style=&quot;forced-color-adjust: none; color: rgb(0, 0, 0); font-size: 12px; font-style: normal; font-variant-ligatures: normal; font-variant-caps: normal; font-weight: 400; letter-spacing: normal; orphans: 2; text-indent: 0px; text-transform: none; widows: 2; word-spacing: 0px; -webkit-text-stroke-width: 0px; background-color: rgb(251, 251, 251); text-decoration-thickness: initial; text-decoration-style: initial; text-decoration-color: initial; border: 0px; margin-top: 0px; margin-bottom: 0px; text-align: start;&quot;&gt;&lt;span style=&quot;forced-color-adjust: none; background-color: rgb(255, 255, 255);&quot;&gt;mac_address&lt;/span&gt;&lt;/pre&gt;" style="text;whiteSpace=wrap;html=1;" vertex="1" parent="1">
          <mxGeometry x="290" y="132.5" width="110" height="27.5" as="geometry" />
        </mxCell>
        <mxCell id="V5OFqShGKvGqf3K6uyeU-36" value="&lt;pre style=&quot;forced-color-adjust: none; color: rgb(0, 0, 0); font-size: 12px; font-style: normal; font-variant-ligatures: normal; font-variant-caps: normal; font-weight: 400; letter-spacing: normal; orphans: 2; text-indent: 0px; text-transform: none; widows: 2; word-spacing: 0px; -webkit-text-stroke-width: 0px; background-color: rgb(251, 251, 251); text-decoration-thickness: initial; text-decoration-style: initial; text-decoration-color: initial; border: 0px; margin-top: 0px; margin-bottom: 0px; text-align: start;&quot;&gt;&lt;span style=&quot;forced-color-adjust: none; background-color: rgb(255, 255, 255);&quot;&gt;ieee80211_iface_combination&lt;/span&gt;&lt;/pre&gt;" style="text;whiteSpace=wrap;html=1;" vertex="1" parent="1">
          <mxGeometry x="190" y="152.5" width="230" height="40" as="geometry" />
        </mxCell>
        <mxCell id="V5OFqShGKvGqf3K6uyeU-37" value="&lt;pre style=&quot;forced-color-adjust: none; color: rgb(0, 0, 0); font-size: 12px; font-style: normal; font-variant-ligatures: normal; font-variant-caps: normal; font-weight: 400; letter-spacing: normal; orphans: 2; text-indent: 0px; text-transform: none; widows: 2; word-spacing: 0px; -webkit-text-stroke-width: 0px; background-color: rgb(251, 251, 251); text-decoration-thickness: initial; text-decoration-style: initial; text-decoration-color: initial; border: 0px; margin-top: 0px; margin-bottom: 0px; text-align: start;&quot;&gt;&lt;span style=&quot;forced-color-adjust: none; background-color: rgb(255, 255, 255);&quot;&gt;max_scan_ssids&lt;/span&gt;&lt;/pre&gt;" style="text;whiteSpace=wrap;html=1;" vertex="1" parent="1">
          <mxGeometry x="270" y="172.5" width="130" height="40" as="geometry" />
        </mxCell>
        <mxCell id="V5OFqShGKvGqf3K6uyeU-38" value="&lt;pre style=&quot;forced-color-adjust: none; color: rgb(0, 0, 0); font-size: 12px; font-style: normal; font-variant-ligatures: normal; font-variant-caps: normal; font-weight: 400; letter-spacing: normal; orphans: 2; text-indent: 0px; text-transform: none; widows: 2; word-spacing: 0px; -webkit-text-stroke-width: 0px; background-color: rgb(251, 251, 251); text-decoration-thickness: initial; text-decoration-style: initial; text-decoration-color: initial; border: 0px; margin-top: 0px; margin-bottom: 0px; text-align: start;&quot;&gt;&lt;span style=&quot;forced-color-adjust: none; background-color: rgb(255, 255, 255);&quot;&gt;cipher_suites&lt;/span&gt;&lt;/pre&gt;" style="text;whiteSpace=wrap;html=1;" vertex="1" parent="1">
          <mxGeometry x="270" y="192.5" width="130" height="40" as="geometry" />
        </mxCell>
        <mxCell id="V5OFqShGKvGqf3K6uyeU-39" value="&lt;pre style=&quot;forced-color-adjust: none; color: rgb(0, 0, 0); font-size: 12px; font-style: normal; font-variant-ligatures: normal; font-variant-caps: normal; font-weight: 400; letter-spacing: normal; orphans: 2; text-indent: 0px; text-transform: none; widows: 2; word-spacing: 0px; -webkit-text-stroke-width: 0px; background-color: rgb(251, 251, 251); text-decoration-thickness: initial; text-decoration-style: initial; text-decoration-color: initial; border: 0px; margin-top: 0px; margin-bottom: 0px; text-align: start;&quot;&gt;&lt;span style=&quot;forced-color-adjust: none; background-color: rgb(255, 255, 255);&quot;&gt;fw_version&lt;/span&gt;&lt;/pre&gt;" style="text;whiteSpace=wrap;html=1;" vertex="1" parent="1">
          <mxGeometry x="290" y="212.5" width="110" height="40" as="geometry" />
        </mxCell>
        <mxCell id="V5OFqShGKvGqf3K6uyeU-41" value="&lt;pre style=&quot;border: 0px; margin-top: 0px; margin-bottom: 0px; text-align: start;&quot;&gt;&lt;span style=&quot;background-color: rgb(255, 255, 255);&quot;&gt;wiphy_vendor_command&lt;/span&gt;&lt;/pre&gt;" style="whiteSpace=wrap;html=1;rounded=1;shadow=1;comic=0;labelBackgroundColor=none;strokeWidth=2;fontFamily=Verdana;fontSize=12;align=center;arcSize=50;verticalAlign=middle;" vertex="1" parent="1">
          <mxGeometry x="300" y="340" width="160" height="30" as="geometry" />
        </mxCell>
      </root>
    </mxGraphModel>
  </diagram>
</mxfile>
